<svg width="749" height="714" viewBox="0 0 749 714" fill="none" xmlns="http://www.w3.org/2000/svg">
<g clip-path="url(#clip0_470_4330)">
<path d="M424.21 712.13C418.61 712.72 414.61 713.21 409.68 713.33L391.88 713.79C387.32 713.91 384.01 713.97 379.61 713.82L358.92 713.13C258.94 706.03 164.83 662.13 96.68 588.47C44.18 531.72 6.61 453.79 1.01 376.44L0 362.54L0.22 326.9C4.72 245.98 37.2 169.42 93.73 111.56L104.23 100.81C129.24 77.31 156.71 57.16 187.56 41.28C234.37 17.18 285.31 3.22 337.9 0H386.44C473.7 5.19 556.33 38.77 622.19 95.94L632.88 105.58C654.47 125.06 672.78 147.73 689.01 172.19C722.31 222.41 742.72 279.3 747.72 339.33L748.41 349.59L748.44 384.51L747.38 398.44C741.22 479.7 700.24 559.99 640.63 615.48C580.83 671.14 505.99 703.49 424.22 712.12L424.21 712.13Z" fill="#6D4627"/>
<path d="M559.52 669.3C424.01 739.54 257.43 719.62 138.98 624.23C61.3102 561.68 10.5101 470.31 3.11015 370.48C-3.80985 277.13 27.7601 187.36 90.7801 118.47C165.53 36.7603 276.36 -4.64971 386.84 2.34029C478.44 8.13029 565.8 45.5403 632.45 108.77C677.91 151.9 712.06 205.52 730.69 265.44C767.03 382.31 738.74 507.64 655.2 597.06C627.72 626.48 595.36 650.73 559.52 669.3Z" fill="#F2C186"/>
<path d="M558.2 656.03C417.19 731.59 240.71 703.7 125.47 593.72C61.3503 532.52 21.0703 450.28 16.0703 361.49L16.1403 324.62C23.0903 203.19 97.2603 98.6403 207.08 47.8303C342.66 -14.8897 504.88 13.1703 614.98 113.28C650.22 145.32 679.01 183.72 699.2 226.94C756.02 348.57 736.93 490.34 645.18 589.06C620.09 616.06 590.86 638.54 558.2 656.04V656.03Z" fill="#6D4627"/>
<path d="M629.45 601.28C560.07 667.39 466.38 699.82 370.71 695.56C274.74 691.29 183.46 650.36 116.68 581.55C49.9004 512.74 12.6604 419.46 18.5004 323.36C22.9704 249.73 53.0204 180.1 103.16 125.89C132.25 94.4296 167.22 69.1896 206.02 50.8396C342.33 -13.6404 507.5 15.8096 616.97 118.22C680.98 178.1 722.55 259.94 728.22 347.68L728.28 391.43C722.93 471.38 687.42 546.06 629.46 601.28H629.45Z" fill="#E6D5B2"/>
<path d="M372.08 679.06C368.39 675.95 368.33 672.07 366.8 668.45C362.79 658.96 363.83 648.83 369.41 640.19C374.14 632.87 373.95 625.05 369.39 617.73L352.22 590.15C339.62 569.91 345.89 548.49 341.8 527.4C341.28 524.73 340.69 522.45 338.16 520.49C335.81 527.53 331.04 532.6 324.95 536.83L300.22 554.03C291.79 562.94 292.25 577.05 293.46 588.34C294.22 595.44 291.76 601.38 290.03 607.91C287.56 617.2 281.64 624.87 274.33 631.24C267.51 637.17 250.75 643.57 248.68 643.05C247.81 642.83 247.33 641 247.83 640.79C252.61 638.74 254.17 634.41 257.2 631.04C268.81 618.12 273.57 605.24 268.88 588.34C266.77 580.73 262.55 574.27 259.34 566.89C253.79 554.13 254.95 537.91 264.2 527.06C267.48 523.21 270 519.72 272.95 515.73C278.51 508.2 284.32 500.57 283.69 489.58C266.26 503.98 240.11 504.49 226.98 519.77L217.16 536.07C207.06 550.3 190.35 558.89 172.78 558.44C161.65 558.15 151.93 560.39 142.43 567.22C143.42 560.93 146.36 555.57 151.08 552.9L170.27 542.04C175.61 539.02 180.8 534.43 182.41 528.3C185.25 517.46 186.41 506.65 190.5 496.21L197.08 483.86C203.38 474.77 211.95 468.14 220.3 461.15L232.92 448.51C210.88 452.43 197 443.81 174.98 448.57C164.55 450.83 155.97 455.31 148.32 463.26L139.14 472.8C129.7 482.62 116.9 485.53 103.87 482.31L66.6405 473.11C73.6805 464.95 82.9805 462.61 92.7705 462.59C102.56 462.57 113.64 460.9 119.87 452.73C128.86 440.96 131.77 415 150.17 405.02C167.96 395.38 192.31 402.28 206.6 385.86C199.59 384.19 192.42 381.84 185.31 378.8C178.73 375.98 172.26 373.99 165.55 371.52C154.05 367.29 142.33 365.9 130.19 369.1C111.9 373.93 95.1205 380.61 80.6605 366.47C74.2905 360.25 68.0605 353.89 59.5005 350.71L50.7305 350.33C52.1405 346.99 55.6005 346.48 58.5005 345.45C65.6005 342.94 71.5905 343.67 78.4105 345.6L100.31 351.79C107.28 353.76 115.49 347.34 120.02 341.94C128.64 331.67 138.11 324.78 151.29 321.94C156.55 320.81 161.1 320.03 166.78 321.34C181.48 324.71 200.13 327.32 211.94 319.74C203.06 318.33 196.83 313.92 191.28 307.88C187.14 303.37 183.45 299.34 179.86 294.24C172.31 283.54 160.56 275.44 147.3 276.04L132.76 276.7C120.87 277.24 111.35 277.65 101.67 269.52C97.6505 266.14 94.6105 262.64 92.1405 257.91L83.2505 240.88C81.1105 236.78 77.7105 233.46 76.7105 228.59C82.2405 228.13 87.3505 230.4 91.5105 233.71L108.75 247.47C116 253.25 127.01 254.12 134 248.71C146.82 238.8 162.59 233.31 178.99 236.29C195.39 239.27 205.7 257.15 217.87 262.26C223.17 264.49 228.9 264.79 234.58 265.56L228.39 255.81C218.81 235.32 220.02 221.52 202.97 209.19L183.84 195.37C166.34 182.73 165.84 167.09 164.37 146.65C163.83 139.1 157.6 134.51 158.83 130.18C169.19 133.33 179.52 145.33 184.38 154.71C197.35 179.72 224.24 168.78 241.2 178.05C255 185.59 263.29 207.11 282.98 214.41C278.76 205.4 278.87 196.4 281.16 187.08C291.85 143.6 272.84 142.76 259.45 119.78C253.24 109.12 251.44 105.33 258.12 92.9198C263.12 83.6298 265.56 74.6998 266.27 63.5498C274.91 78.5998 264.64 92.9198 281.92 107.4C295 118.37 326.98 124.09 330.84 154.34C332.72 169.05 330.07 181.53 340.01 192.77C340.7 184.38 342.9 178.64 346.33 172.15C357.28 151.47 365.52 133.23 356.55 110.66C352.81 101.26 351.98 81.1898 356.27 73.9998L361.12 65.8698L376.65 46.2998C377.76 44.8998 377.24 41.9698 379.85 41.0498C382.93 44.0398 383.88 48.5098 382.79 52.6898C383.22 60.2098 380.8 67.4398 378.93 74.2298C377.88 101.43 404.47 113.03 405.5 136.43L406.08 149.6L404.02 167.75C403.06 176.22 405.82 184.14 409.59 191.84C414.2 186.61 415.67 181.01 416.08 174.62L416.87 162.45L417.98 152.59C418.82 145.14 423.24 137.7 428.6 132.58C446.25 115.7 464.57 115.78 474.22 99.0798C480.3 88.5698 475.16 75.3898 482.1 64.4598C482.78 75.7198 485.25 84.6198 490.24 93.9198C496.89 106.32 495.21 110.29 488.54 121.39C475.1 143.75 456.81 145.2 467.01 187.26C469.27 196.55 469.9 205.48 465.48 215.24C484.65 208.6 493.23 186.73 507.17 179.05C524.03 169.76 551.02 180.74 563.98 155.71L571.29 145.14C575.83 138.57 581.87 133.84 589.5 131.2C590.461 134.2 588.891 135.52 587.68 137.55C578.55 152.86 590 177.96 564.531 196.37L545.4 210.2C538.54 215.16 533.23 221.19 530.38 229.26L523.88 247.66C521.43 254.61 518.47 260.53 513.53 266.46L527.53 264.29C533.171 263.41 537.42 259.18 541.64 255.45L554.3 244.25C568.29 231.88 595.05 235.33 610.91 247.38C619.84 254.16 630.25 255.75 638.451 249.27L656.85 234.74C661.03 231.44 666.13 229.15 671.651 229.58C670.651 234.47 667.25 237.79 665.11 241.89L656.22 258.92C653.75 263.66 650.701 267.15 646.69 270.54C637.031 278.72 627.33 278.23 615.6 277.71L601.05 277.06C587.78 276.46 576.07 284.6 568.49 295.26C560.91 305.92 549.6 319.2 536.43 320.75C548.24 328.39 566.831 325.71 581.57 322.37C587.23 321.09 591.82 321.83 597.06 322.97C610.23 325.82 619.721 332.7 628.331 342.97C632.841 348.35 641.091 354.79 648.01 352.83L669.94 346.63C676.74 344.71 682.76 343.96 689.841 346.5C692.741 347.54 696.25 347.92 697.63 351.51C685.56 349.53 676.73 358.64 667.68 367.5C653.44 381.45 636.94 375.12 618.92 370.33C606.94 367.14 595.141 368.37 583.56 372.38L568.66 377.54C559.47 380.72 550.75 384.75 541.75 386.92C556.03 403.32 580.39 396.41 598.17 406.06C616.26 415.88 619.31 441 628.07 453.27C633.62 461.05 644.271 463.58 653.57 463.53C663.98 463.48 674.12 465.39 681.73 474.14L644.47 483.35C631.44 486.57 618.63 483.67 609.201 473.85L599.54 463.78C592.08 456 583.54 451.83 573.37 449.62C551.29 444.81 537.49 453.5 515.43 449.53L528.06 462.17C535.73 469.84 544.97 475.8 551.27 484.89L557.85 497.23L565.701 528.56C567.31 534.99 572.421 539.89 578.091 543.06L596.74 553.49C601.65 556.23 604.86 561.76 605.94 568.19C596.701 561.8 587.351 559.1 576.57 559.48C558.65 560.12 541.54 551.67 531.18 537.05L521.38 520.78C508.26 505.35 482.17 505.3 464.68 490.37C463.86 500.8 469.57 508.96 475.41 516.74C478.39 520.71 480.87 524.23 484.16 528.07C493.41 538.86 494.56 555.17 489.02 567.9C485.81 575.28 481.59 581.74 479.48 589.35C474.72 606.43 479.6 618.94 491.16 632.07C494.15 635.47 496.27 640.22 500.99 642.07C500.78 643.5 499.45 644.34 498.97 644.17C490.28 641.18 481.59 638.56 474.57 632.66C467.23 626.49 461.16 618.85 458.59 609.7C456.69 602.92 454.13 596.69 454.93 589.37C456.16 578.13 456.54 563.92 448.14 555.05L423.42 537.86C417.15 533.5 412.82 528.48 409.71 521.06C408.43 537.74 403.59 551.69 395.74 565.58C392.71 570.94 390.4 577.25 391.81 583.41L397.54 608.49C398.68 618.99 396.8 629.22 390.92 637.83L380.39 653.27C377.21 657.94 374.43 663.09 372.87 668.66L372.04 679.07L372.08 679.06Z" fill="#6D4627"/>
<path d="M313.801 480.28C308.741 472.76 304.551 465.76 301.161 458.08C299.751 454.88 300.971 450.8 300.611 447.65C300.001 442.33 302.071 438.89 303.541 434.4C310.231 413.97 319.641 405.83 314.111 380.27C311.151 366.6 305.481 354.48 294.801 345.43C273.411 327.31 248.271 336.91 225.311 351.77C224.491 341.98 226.081 329.94 228.601 319.05C240.241 319.26 248.331 313.04 257.181 307.42C266.891 301.26 277.861 298.78 289.021 297.88C297.901 297.17 305.301 302.99 310.681 309.44C314.361 313.85 314.301 318.04 314.991 323.57C316.441 335.22 327.281 344.03 338.961 345.1C352.331 346.33 361.111 337.06 372.341 338.99L372.451 362.49C372.481 368.5 370.151 374.96 367.491 380.35L357.581 400.46C351.221 413.37 326.771 430.29 317.241 457.89L313.791 480.29L313.801 480.28Z" fill="#DFBC85"/>
<path d="M447.47 457.79L434.61 480.31L431.18 457.89C421.76 430.47 397.17 413.31 390.83 400.47L380.92 380.36L376.1 363.27L376.07 339.01C387.25 337.02 396.09 346.3 409.47 345.1C421.15 344.05 432 335.2 433.44 323.58C434.13 318.04 434.07 313.86 437.75 309.45C443.14 302.99 450.53 297.18 459.39 297.88C470.61 298.78 481.48 301.29 491.26 307.41C499.9 312.82 507.76 319.22 519.33 318.9C522.39 328.86 523.51 340.7 523.28 351.86C501.06 337.46 475.41 326.96 453.63 345.42C442.95 354.48 437.29 366.58 434.32 380.26C428.84 405.51 437.98 413.72 444.88 434.41C446.37 438.89 448.02 442.35 447.83 447.63L447.47 457.79Z" fill="#DFBC85"/>
<path d="M472.56 402.63C475.83 409.76 465.79 416.29 466.12 430.26C466.29 437.41 476.15 445.23 479.78 455.89C466.56 468.46 451.91 479.15 434.33 486.87L445.73 466.46C449.75 459.26 451.59 452.89 449.88 444.32C447.75 433.68 443.6 423.34 438.7 413.58C436.95 410.09 437.21 406.31 436.37 402.85C432.66 387.44 439.14 365.34 449.31 353.18C470.42 327.95 498.32 338.01 523.56 354.67C522.89 373.82 518.92 391.81 511.42 409.52C505.48 408.99 500.52 405.83 497.22 400.95L488.4 387.91C484.56 382.23 480.4 378.78 474.77 375.25C468.4 371.26 459.76 371.05 455.7 378.6C453.41 382.87 456.31 387.7 460.22 389.98C465.43 393.01 470.07 397.21 472.56 402.63Z" fill="#C8965F"/>
<path d="M277.679 440.42C285.029 430.86 282.829 422.04 276.449 410.87C272.059 403.18 280.269 394.47 288.809 389.53C292.439 387.43 294.839 382.46 292.739 378.62C288.599 371.06 280.029 371.21 273.629 375.26C268.029 378.8 262.909 381.6 260.019 387.91C257.849 392.65 254.369 396.78 251.199 400.95C247.799 405.42 243.559 408.62 237.539 409.54C229.769 392.19 225.769 373.97 224.939 354.63C250.409 337.82 278.429 327.87 299.569 353.73C309.419 365.78 315.629 387.41 312.049 402.85C311.239 406.33 311.459 410.08 309.709 413.58C304.839 423.35 300.619 433.66 298.539 444.33C296.929 452.57 298.379 458.91 302.339 465.8L313.849 485.8C296.679 478.23 282.339 467.75 268.899 455.29C271.149 449.84 273.999 445.19 277.659 440.42H277.679Z" fill="#C8965F"/>
<path d="M408.661 496.02C399.571 499.12 390.04 499.15 380.58 499.52C387.81 488.74 389.891 474.66 382.261 463.79C377.761 457.38 356.761 450.48 364.631 427.29L373.99 401.85C376.88 393.99 376.441 385.97 377.061 377.36C379.071 384.39 382.921 390.3 386.131 397.08C390.501 406.32 397.461 413.28 404.221 421.08C414.401 431.8 423.551 443.37 428.411 457.69C431.731 467.46 431.601 478.03 431.751 488.14L408.651 496.02H408.661Z" fill="#D3A56C"/>
<path d="M373.37 458.93C388.06 468.53 387.99 485.51 377.52 499.54C356.35 499.52 336.48 495.32 316.68 487.16C316.81 477.32 316.82 467.14 320 457.69C329.14 430.53 352.28 417.31 362.32 397.07C366.65 388.33 371.46 380.51 372.98 370C375.98 375.44 374.64 381.51 374.02 387.72C373.6 391.92 373.62 395.94 372.16 399.97L362.36 426.98C357.79 439.56 362.54 451.84 373.38 458.92L373.37 458.93Z" fill="#D3A56C"/>
<path d="M357.86 338.69C346.35 343.93 332.5 344.95 324.48 335.75C318.55 331.06 315.93 324.31 316.8 316.44C312.95 305.94 303.39 296.56 291.8 295.75C281.44 295.03 272.47 298.67 262.41 301.74C278.91 286.05 297.4 277.78 319.77 281.38C331.33 283.24 342.37 287.24 351.41 294.81C361.02 302.86 371.6 323.12 371.78 336.61C366.68 336.06 362.32 336.66 357.87 338.69H357.86Z" fill="#BF8C58"/>
<path d="M431.619 316.42C433.659 328.1 423.189 340.13 413.159 342.04C396.949 345.13 389.349 334.81 376.689 336.61C377.189 321.76 386.819 304.5 397.479 294.12C413.689 282.59 434.219 277.39 453.789 282.47C466.129 285.68 476.539 292.99 486.169 301.55C475.579 298.83 466.359 294.66 455.769 295.82C444.479 297.07 435.389 306.22 431.619 316.41V316.42Z" fill="#BF8C58"/>
<path d="M643.851 481.03C633.651 483.48 620.761 481.8 613.511 474.7L594.861 456.46C587.071 448.84 564.681 444.28 552.931 445.86L537.961 447.88C529.161 449.06 520.791 448.87 512.251 445.97C508.861 441.45 503.971 436.17 503.211 430.61L511.701 414.23C521.211 419.17 530.561 421.7 541.031 423.12L564.351 423.84C576.161 424.2 588.011 427 597.321 435.02C607.601 443.87 614.551 460.91 626.491 468.82C633.361 471.58 640.971 473.53 648.551 473.18C656.731 472.8 664.681 470.88 673.211 473.98L643.841 481.03H643.851Z" fill="#BB8957"/>
<path d="M135.43 473.25C127.97 480.57 115.51 482.53 105.84 480.24L75.1504 472.98C90.5304 468.33 101.83 476.31 121.22 468.03C131.28 463.73 140.49 443.11 151.08 434.01C160.4 426 172.27 424.15 184.06 422.84L207.39 422.13C217.81 421.81 227.33 418.19 236.61 413.24L245.64 429.57C243.5 435.33 240.14 440.31 236.07 445C224.75 449.02 207.93 447.46 195.48 444.87C185.63 442.82 161.27 447.9 153.56 455.47L135.44 473.25H135.43Z" fill="#BB8957"/>
<path d="M369.65 662.52C369.54 664.56 368.95 665.42 367.9 665.09C361.77 645.44 380.45 637.3 373.95 622.14C364.57 600.27 343.33 585.43 345.69 548.52C346.31 538.83 345.37 522.38 339.01 518.15C341.95 511.71 342.14 504.72 340.98 497.58C352.03 500.06 362.93 501.88 374.73 501.65C377.07 507.16 377.32 513.01 376.21 518.96L371.93 541.84C368.38 553.8 366.13 566.15 368.64 578.57C370.84 589.49 383.02 603.59 382.37 619.43C382.1 625.87 381.14 632.77 378.71 638.54L371.32 656.12C370.36 658.4 369.41 660.23 369.66 662.53L369.65 662.52Z" fill="#DEB881"/>
<path d="M594.88 558.81C595.87 559.69 595.39 559.96 593.42 559.61C588.97 557.69 584.59 557.24 579.65 557.49C561.41 558.39 543.8 551.1 533.21 536.05L523.88 520.36C517.85 512.81 509.62 508.72 500.79 505.37L483.46 498.8C476.2 496.05 469.86 492.52 464.31 487L463.83 472.54L481.2 457.5L486.62 464.63C493.68 471.34 501.58 476.71 510.72 480.52C526.29 487 537.82 498.52 543.42 514.89C549.09 531.47 552.17 544.92 572.45 550.9C580.08 553.15 587.39 556.07 594.89 558.82L594.88 558.81Z" fill="#C3905C"/>
<path d="M154.56 558.81C152.79 559.52 152.49 558.73 154.1 557.56C161.4 554.78 168.57 552.07 175.98 549.89C196.29 543.92 199.34 530.39 205.01 513.87C210.61 497.57 222.15 485.93 237.71 479.54C248.44 475.14 261.08 466.67 267.07 456.39C272.36 461.75 277.97 466.45 284.32 471.15C285.26 476.01 284.59 480.88 284.2 485.84C278.9 491.33 272.36 494.98 264.97 497.79L247.64 504.37C238.8 507.73 230.58 511.8 224.55 519.36L215.22 535.05C204.63 550.09 187.02 557.39 168.78 556.48C163.63 556.22 158.97 556.75 154.57 558.82L154.56 558.81Z" fill="#C3905C"/>
<path d="M372.241 664.61C370.551 661.58 372.421 659.44 373.361 657.19L381.031 638.82C383.461 633 384.301 626.02 384.511 619.46C385.131 600.68 370.871 587.47 369.941 572.35C369.341 562.63 370.921 552.9 373.821 543.64L377.121 527.78C378.901 519.22 379.441 511.19 377.941 501.76C388.231 501.88 396.791 501.01 407.531 499.06C406.461 503.73 406.951 508.03 407.251 512.72C409.621 549.02 386.381 569.06 389.281 581.01L394.541 602.74C397.421 614.63 395.911 626.69 388.971 636.87L378.891 651.67C376.031 655.86 373.601 659.95 372.231 664.61H372.241Z" fill="#C3905C"/>
<path d="M94.3304 469.66C86.9804 468.12 81.3304 469.73 74.1504 469.72C87.9904 460.21 107.19 469.77 120.65 455.55C129.72 445.97 133.87 415.58 151.1 406.98C170 397.55 192.91 403.66 206.84 388.66C211.36 383.79 217.46 390.69 227.55 387.88C229.84 396.39 232.45 403.41 235.68 411.09C226.53 416.45 216.69 418.6 206.39 420.11L182.9 420.77C170.91 421.1 158.99 424.47 149.6 432.49C139.35 441.25 129.85 461.03 121.6 465.43C113.49 469.76 103.96 470.27 94.3104 469.66H94.3304Z" fill="#DBB678"/>
<path d="M673.14 470.35C656.27 469.07 642.49 473.8 627.38 466.92C615.99 458.77 609.12 442.42 598.79 433.51C589.44 425.45 577.44 423.07 565.51 421.78L542.86 421.21C532.2 420.94 522.22 417.34 512.76 412.32L520.9 388.79C526.73 390.55 532.38 389.09 538.71 387.09C554.81 405.62 577.06 398.04 597.3 408C614.41 416.42 618.71 447 627.75 456.56C641.1 470.67 660.21 461.38 673.12 470.36L673.14 470.35Z" fill="#DBB678"/>
<path d="M292.04 226.81C282.65 233.05 273.87 239.61 265.69 247.95C253.34 241.51 246.23 230.12 241.33 217.56C237.42 207.53 229.59 198.6 220.86 192.52C208.42 183.86 188.13 189.19 172.38 151.99C169.85 146.02 168.32 140.58 163.41 135.43C170.15 136.99 179.05 149.5 182.82 156.28C197.25 182.21 224.02 170.63 240.81 180.39C254.76 188.5 262.52 210.03 284.13 217.05L292.05 226.81H292.04Z" fill="#DEB881"/>
<path d="M485.141 247.59C482.981 248.93 480.391 246.7 478.941 245.31C471.831 238.46 464.501 233.26 456.211 227.73L464.331 218.23C486.231 210.5 493.691 189.5 507.621 181.38C524.831 171.35 550.331 183.8 566.091 156.74C570.751 148.74 576.191 140.56 584.771 136.12C580.521 141.77 578.451 146.95 576.001 152.96C560.931 189.92 539.091 185.11 526.971 193.88C518.501 200.01 510.911 208.73 507.061 218.56C502.521 230.16 496.311 240.65 485.131 247.58L485.141 247.59Z" fill="#DEB881"/>
<path d="M345.99 206.11C346.08 202.81 342.45 199.85 342.06 196.17C341.61 191.95 342.45 186.01 344.35 182.07L356.08 157.79C362.47 144.56 365.5 129.88 360.55 115.44C354.71 98.3904 351.81 81.2104 363.27 67.0404L375.67 51.6904C373.04 63.0004 367.98 71.8104 366.75 82.5404C364.6 101.38 392.58 120.74 377.13 169.77L372.71 196.56L372.82 203.39C363.52 203.61 355.22 204.45 345.97 206.1L345.99 206.11Z" fill="#C3905C"/>
<path d="M643.59 373.63C621.96 370.91 609.48 360.47 581.78 370.51L566.32 376.11C551.92 381.33 537.7 386.54 521.57 387.65C523.58 375.94 525.44 365.68 525.72 354.53L530.84 356.36L549.6 356.23L570.11 350.86C576.63 349.16 582.75 345.7 589.78 345.77C595.86 345.83 602.6 346.64 607.93 349.36L624.43 357.76C628.38 359.77 632.14 362.35 636.65 363.61C644.58 365.82 654.19 364.51 661.1 359.95C667.63 355.65 674.24 352.33 681.65 352.64L669.21 362.92C662.57 370.42 654.02 374.94 643.58 373.62L643.59 373.63Z" fill="#C3905C"/>
<path d="M165.89 369.3C137.85 359.66 126.57 369.91 104.85 372.64C94.3498 373.96 85.8698 369.41 79.2098 361.92L66.5898 351.56C74.9398 351.35 81.2798 355.08 87.9198 359.29C94.5598 363.5 104.09 364.68 111.76 362.59C116.27 361.36 120.03 358.76 123.98 356.75L140.49 348.35C145.81 345.65 152.57 344.81 158.63 344.77C165.95 344.72 172.26 348.34 179.04 350.1L198.81 355.21L217.57 355.36L222.68 353.52C222.98 364.63 224.81 374.97 226.85 386.61C209.38 385.51 193.79 380.48 178.61 373.67L165.88 369.29L165.89 369.3Z" fill="#C3905C"/>
<path d="M406.251 283.5C403.821 274.84 393.331 268.56 385.161 262.02L375.561 250.89C384.711 235.01 381.981 224.05 376.351 205.78C396.561 206.49 417.481 209.71 435.721 219.61C435.691 228.55 431.721 236.34 425.551 242.33C415.101 252.47 409.741 267.4 406.251 283.5Z" fill="#D3A56C"/>
<path d="M552.88 280.73C545.87 288.83 526.56 298.24 513.99 295.41C511.22 288.14 507.94 282.04 503.93 275.76C514.08 263.83 526.39 272.53 542.26 258.02L554.18 247.12C568.74 233.81 594.79 237.49 610.37 249.92C615.08 253.68 621.45 256.18 627.66 255.6C643.11 254.16 650.32 238.65 663.13 234.47C657.42 239.59 653.29 244.75 647.78 249.63L637.2 259.01C626.65 268.36 608.77 256.62 588.9 256.03C576.59 255.67 570.16 260.73 562.19 269.95L552.87 280.73H552.88Z" fill="#DBB678"/>
<path d="M234.55 294.28C221.75 297.42 202.25 287.65 195.06 279.25L186.69 269.47C178.64 260.07 172.09 254.61 159.52 255.03C138.98 255.72 122.6 267.29 111.2 257.99C101.08 249.74 94.8501 241.95 85.3301 233.49C92.9601 235.69 97.4201 241.49 103.14 246.13C115.04 255.79 126.3 258.23 138.65 248.51C147.31 241.69 157.13 238.82 168.01 237.69C177.6 236.7 186.33 240.29 194.26 246.12L206.18 257.01C222.1 271.55 234.31 262.8 244.5 274.72C240.72 280.85 237.38 286.54 234.57 294.27L234.55 294.28Z" fill="#DBB678"/>
<path d="M88.9601 357.33C77.5401 349.99 73.4101 350.57 61.5801 347.03C67.4001 345.17 73.1601 346.47 78.9301 348.09L100.18 354.06C107.66 356.16 116.78 349.53 121.66 343.56C129.38 334.11 137.92 327.44 149.98 324.62C155.42 323.35 160.78 322.38 166.72 323.63C178.21 326.05 189.6 327.45 201.27 326.14C206.55 325.55 210.28 322.68 214.84 320.95C218.03 319.74 222.16 320.46 226.21 319.26C224.22 330.35 222.87 340.5 222.61 351.14C218.79 353.61 214.85 353.33 210.74 353.59C189.71 354.92 173.95 343.89 161.66 342.75C138.33 340.58 122.36 358.18 109.23 360.98C102.72 362.37 94.5001 360.9 88.9601 357.34V357.33Z" fill="#DEB881"/>
<path d="M686.92 348.07L672.9 351.6C667.65 352.92 664.02 355.59 659.49 358.36C653.82 361.83 645.8 363.4 639.17 361.98C626.09 359.18 610.1 341.57 586.76 343.74C574.37 344.89 558.83 355.89 537.69 354.58C533.58 354.32 529.64 354.59 525.83 352.14C525.52 341.28 524.24 330.83 522.07 320.17C526.47 321.65 531.04 320.63 534.16 322.1C538.53 324.16 542.13 326.52 547.17 327.12C559.12 328.56 570.81 326.88 582.63 324.5C588.28 323.36 593.33 324.45 598.45 325.63C610.53 328.41 619.02 335.13 626.76 344.57C631.64 350.51 640.77 357.14 648.26 355.05L670.28 348.92C675.8 347.38 681.32 346.24 686.93 348.07H686.92Z" fill="#DEB881"/>
<path d="M510.841 267.39C509.071 270.16 504.711 270.84 502.981 273.72C496.881 265.22 491.731 257.86 484.221 250.44C496.671 243.52 503.821 232.21 508.881 219.41C512.691 209.79 520.171 201.3 528.511 195.46C534.711 191.12 542.031 190.35 548.631 187.31C567.781 178.51 573.741 163.96 581.541 145.27C580.701 166.68 580.421 182.16 563.111 194.87L538.281 213.09C527.411 221.06 524.491 245.98 516.971 257.79L510.851 267.39H510.841Z" fill="#C3905C"/>
<path d="M245.6 272.58L237.73 266.61C234.79 264.38 233.37 260.11 231.48 256.79C223.22 242.27 220.58 219.76 210.16 212.12L185.33 193.93C174.81 186.22 168.61 175.12 168.2 161.95C168.02 156.14 165.95 150.46 167.08 144.34C170.96 154.68 175.51 164.83 182.58 173.65C194.29 188.27 211.96 188.59 220.52 194.85C228.32 200.56 235.56 208.57 239.24 217.76C244.43 230.7 251.46 242.44 264.22 249.43C256.89 256.75 251.87 263.73 245.62 272.59L245.6 272.58Z" fill="#C3905C"/>
<path d="M232.911 296.47L226.741 317.3C194.121 323.62 188.051 294.35 170.211 281.06C150.121 266.1 129.461 278.86 112.161 273.01C102.881 269.88 96.6407 262.14 92.4907 253.8L83.7207 236.16C89.8607 239.33 93.0407 244.84 98.0707 249.18L111.411 260.7C122.651 270.41 145.851 254.24 167.471 257.98C174.851 259.25 180.101 265.27 184.651 270.46L193.601 280.68C200.481 288.54 219.761 299.49 232.931 296.46L232.911 296.47Z" fill="#BB8957"/>
<path d="M521.131 316.87L515.301 297.68C522.071 298.17 528.151 298.04 534.341 295.06C541.701 291.52 549.411 287.89 554.861 281.67L563.801 271.46C568.321 266.3 573.631 260.23 580.961 258.99C603.521 255.16 622.671 271.19 637.011 261.7C648.661 253.99 654.621 243.37 664.681 237.22L655.591 255.43C651.421 263.78 644.881 271.41 635.511 274.25C618.121 279.52 597.591 267.1 577.661 282.48C570.771 287.8 566.061 294.72 560.761 301.57L549.311 313.08C544.721 317.69 529.511 321.89 521.131 316.85V316.87Z" fill="#BB8957"/>
<path d="M319.7 213.04C311.4 216.82 302.97 220.17 294.3 225.64C272.35 204.23 285.74 188.76 286.8 167.69C287.47 154.38 282.85 143.47 273.62 134.6L262.65 120.67C259.79 117.04 257.97 112.5 256.48 108.31C254.55 102.91 261.85 90.9996 265.3 83.3896C266.65 86.4396 264.87 88.8896 264.82 91.6396C264.65 101.13 267.73 110.31 273.32 118.03C277.94 124.42 284.86 128.38 290.82 133.35L297.94 139.28C305.89 149.68 306.84 164.88 306.54 178.59C308.51 190.59 312.04 201.86 319.72 213.04H319.7Z" fill="#BB8957"/>
<path d="M434.92 216.82C432.39 215.52 429.97 214.5 429.4 212.95C436.12 202.64 440.9 191.42 441.57 179.58L442.49 163.41C442.95 155.35 445.19 146.7 450.59 140.37L462.69 130.47L473.86 120.64C480.3 112.83 483.73 102.8 483.64 92.6703C483.62 89.9003 481.68 87.4503 483.2 84.3203L488.96 96.4303C490.74 100.18 493.29 104.97 491.92 109.33C490.63 113.45 488.59 118.11 485.8 121.64L474.37 136.12C468.54 143.5 463.07 150.14 462.05 159.99C461.11 169 462.11 178.48 464.89 187.46C469.43 202.09 465.6 216.6 453.99 226.64L434.93 216.83L434.92 216.82Z" fill="#DBB678"/>
<path d="M402.471 206.14C393.201 204.51 384.891 203.72 375.921 203.38C374.971 200.36 374.991 197.5 375.481 194.33L379.111 170.78C394.691 123.62 368.211 100.64 368.821 84.56C369.251 73.04 377.401 58.17 379.991 44.21C382.881 54.11 378.981 63.01 377.311 72.79C375.581 82.93 379.481 93.81 385.171 101.9C390.061 108.85 395.281 114.66 398.891 122.26C406.791 138.89 403.261 152.5 401.811 169.48C400.701 182.51 408.951 191.47 406.891 196.95C405.721 200.06 403.361 202.82 402.471 206.15V206.14Z" fill="#DEB881"/>
<path d="M259.939 636.75L269.499 625.19C279.969 615.06 284.019 599.93 281.819 585.5L278.619 564.51C277.149 554.9 279.189 544.9 285.609 537.36L304.929 518.74L312.899 507.68C316.639 502.5 317.109 496.02 316.719 489.59C324.059 492.61 330.739 494.99 338.719 496.89C342.609 526.55 325.889 533.86 304.729 547.4C299.709 550.61 296.129 554.22 294.009 559.83C290.489 569.12 290.089 578.75 291.369 588.62C292.229 595.24 289.359 601.31 288.109 607.79C283.399 620.65 274.259 632.29 259.969 636.73L259.939 636.75Z" fill="#BB8957"/>
<path d="M488.45 637.77C475.15 633.6 464.74 622.18 460.53 608.75C458.38 601.89 456.15 594.8 457.14 587.83C458.5 578.28 457.62 569.03 454.13 560.14C446.47 540.62 403.99 540.11 409.61 498.73C417.64 496.62 424.5 494.38 431.67 490.4C431.41 497.06 431.71 503.5 435.56 508.68L444.07 520.13L462.81 538.36C469.9 545.26 471.29 555.83 469.81 565.53L466.61 586.49C464.4 600.94 468.46 616.06 478.9 626.21L488.45 637.77Z" fill="#DBB678"/>
<path d="M264.64 626.4C268.93 617.32 274.07 609.17 273.1 598.88C272.56 593.16 271.68 587.14 269.23 581.96L260.58 563.7C257.51 557.21 257.82 548.93 259.25 541.69C261.93 528.12 280.89 515.08 284.97 498.82C287.08 490.43 286.91 482.15 286.62 473.01C295.98 479.24 304.67 484.37 314.45 488.69C316.2 502.78 308.73 511.76 299.26 521.11L283.15 537.01C278.36 541.74 276.43 549.75 276.1 556.6C275.6 566.88 278.79 576.31 279.66 586.32C280.98 601.48 277.44 617.03 264.62 626.4H264.64Z" fill="#DBB678"/>
<path d="M475.38 599.48C474.34 609.89 479.05 617.78 483.86 627.34C475.46 621.87 470.94 612.24 469.17 602.09C465.29 579.88 480.41 557.91 465.66 538.55L445.07 518.15C437.69 510.84 432.44 500.21 433.84 489.7C443.83 485.42 452.36 480.23 461.81 474.04C461.5 483.16 461.34 491.44 463.45 499.83C467.54 516.11 486.47 529.06 489.17 542.7C490.6 549.94 490.11 557.84 487.85 564.73L479.2 582.97C476.88 587.85 475.97 593.65 475.39 599.49L475.38 599.48Z" fill="#BB8957"/>
<path d="M151.78 555.3C157.62 550.24 164.86 547.37 171.86 543.69C179.41 539.72 184.33 533.01 185.81 524.61C187.29 516.21 189.22 508.5 191.55 500.37C194.96 488.49 202.3 479.38 211.5 471.2C218.07 465.7 224.66 460.7 230.42 454.21C237.29 448.03 242.47 440.89 247.2 432.2C252.84 440.22 258.82 448.01 265.55 454.93C259.12 465.32 249.23 471.27 238.82 476.77C218.07 484.06 205.29 500.98 199.96 521.89C198.05 529.39 193.63 536.81 187.89 541.52C182.6 545.85 175.87 547.15 169.79 549.66C163.39 550.11 158.95 554.32 151.77 555.3H151.78Z" fill="#DEB881"/>
<path d="M596.54 556.36L578.63 550.66C572.53 548.2 565.84 546.81 560.55 542.54C554.88 537.96 550.73 530.89 548.7 523.55C544.07 506.85 536.15 491.25 520.3 482.9L498.76 471.55C491.87 467.92 486.68 462.4 482.91 455.83C490.01 448.67 495.76 440.97 501.23 433.15C505.72 441.49 510.57 448.29 517 454.23C523.26 461.23 530.35 466.7 537.44 472.69C555.2 487.71 558.61 504.3 562.8 526.38C566.42 545.45 584.15 545.55 596.56 556.36H596.54Z" fill="#DEB881"/>
<path d="M339.01 284.14C306.49 271.88 280.44 278.99 256.32 304.05C249.23 311.42 240.15 315.98 229.25 316.63C235.52 291.62 247.95 269.68 265.61 251.08C269.08 256.24 273.25 259.41 278.54 261.8C284.15 262.83 289.73 264.37 295.49 264.05C312.49 263.11 328.63 269.44 339.02 284.14H339.01Z" fill="#C8965F"/>
<path d="M492.1 304.07C467.89 278.98 442.05 271.87 409.42 284.14C419.99 269.16 436.46 263.04 453.73 264.02C464.27 264.62 477.02 260.75 482.32 251.57C500.02 269.98 512.43 291.78 518.99 316.65C508.31 315.92 499.21 311.44 492.1 304.07Z" fill="#C8965F"/>
<path d="M321.899 212.58C314.609 201.81 309.599 189.5 308.789 176.6C307.979 163.7 308.399 148.36 299.349 137.87L287.309 127.9L276.089 118.12C269.059 109.87 264.679 95.3699 268.339 85.9199C269.179 99.3799 278.799 110.09 289.949 115.29C297.319 118.73 304.349 122.61 310.979 127.15C335.849 144.21 326.489 167.88 331.999 183.3L344.109 206.36C336.309 208.05 329.669 209.73 321.899 212.58Z" fill="#DBB678"/>
<path d="M339.26 280.68C330.64 270.38 319.93 264.04 306.23 261.94L287.12 261.22C278.94 260.91 271.39 256.98 267.25 249.38C282.91 234.12 300.99 222.45 321.7 215.03C338.87 229.96 331.03 247.14 335.57 265.62C336.83 270.47 339.8 274.13 339.25 280.68H339.26Z" fill="#DBB678"/>
<path d="M427.509 212.54L404.439 205.99L416.729 184.4C418.359 177.04 418.819 169.44 419.069 161.96C419.929 136.56 437.579 126.14 459.099 115.96C471.509 110.09 480.439 97.8299 480.049 84.4199C483.469 96.3899 479.959 110.11 472.329 119.1L460.539 129.34L449.059 138.88C440.979 148.44 439.289 165.17 439.829 178.56C438.239 190.51 434.299 201.38 427.509 212.54Z" fill="#BB8957"/>
<path d="M372.86 250.51C364.86 264.83 349.4 268.66 341.94 282.53C341.94 276.53 339.79 270.88 337.47 264.64C333.68 245.73 340.19 230.21 324.17 214.12C339.8 208.77 355.73 206.07 372.06 205.82C366.68 223.25 363.43 235.29 372.84 250.52L372.86 250.51Z" fill="#D3A56C"/>
<path d="M374.219 336.63C372.839 318.88 360.669 294.98 343.869 287.26C344.999 272.57 366.409 267.62 374.269 252.92C382.689 268.27 403.639 272.73 404.559 287.26C388.199 294.66 375.639 318.36 374.219 336.63Z" fill="#DFBC85"/>
<path d="M481.58 453.91C478.63 448.28 475.78 442.7 471.5 437.73C469.11 434.41 468.11 430.67 468.72 426.47C469.41 421.15 471.49 416.44 474.13 411.94C479.32 403.1 470.9 393.55 461.38 387.86C458.83 386.34 457.64 384.57 457.56 381.99C457.47 378.93 459.07 377.11 461.88 375.68C465.83 373.66 468.9 374.55 472.51 376.7C477.29 379.55 482.27 382.01 485.24 386.98L494.75 401.42C498.43 407 503.69 410.72 510.56 411.63C503.2 426.97 494.45 440.71 481.59 453.89L481.58 453.91Z" fill="#BF8C58"/>
<path d="M279.781 426.93C281.141 436.68 270.911 442.66 267.311 453.52C255.441 441.23 245.841 427.47 238.391 411.63C250.471 409.54 256.971 397.36 263.191 387.01C266.161 382.03 271.141 379.58 275.921 376.73C279.531 374.58 282.571 373.71 286.531 375.74C289.051 377.03 290.651 378.52 290.841 381.05C291.071 384.15 289.861 386.17 287.061 387.88C277.521 393.69 269.091 403.03 274.301 411.96C276.911 416.44 279.071 421.13 279.791 426.93H279.781Z" fill="#BF8C58"/>
<path d="M441.721 262.02C428.551 264.25 418.261 269.92 409.971 279.97C409.481 275.13 411.591 271.72 413.081 267.82C415.761 258.46 420.611 250.19 427.541 243.33C433.771 237.17 437.271 229.45 437.871 220.57C453.941 227.83 468.201 237.85 480.861 250.06C476.431 257.25 469.241 260.91 461.311 261.23L441.721 262.02Z" fill="#DBB678"/>
<path d="M374.201 247.52C365.991 234.55 370.081 220.12 374.211 206.38C378.771 221.28 382.101 235.28 374.201 247.52Z" fill="#BB8957"/>
<path d="M367.9 665.09L369.65 662.52C369.84 664.31 369.86 666.12 369.44 668.62C368.46 667.69 368.26 666.27 367.9 665.09Z" fill="#C8A270"/>
<path d="M154.56 558.81C153.17 559.46 151.91 560.1 150.57 558.9L154.1 557.56L154.56 558.81Z" fill="#A6784B"/>
<path d="M593.42 559.61L594.88 558.81L597.85 559.9C596.29 561.31 594.89 560.24 593.41 559.61H593.42Z" fill="#A6784B"/>
</g>
<defs>
<clipPath id="clip0_470_4330">
<rect width="748.43" height="713.91" fill="white"/>
</clipPath>
</defs>
</svg>
